<svg height="100" viewBox="0 0 100 100" width="100" xmlns="http://www.w3.org/2000/svg">
    <path d="m30.30786 30c21.8020042 0 39.69214 17.8883811 39.69214 39.535644 0 .1543405-.0097875.3082363-.0120119.464356h-7.4415811c.0022244-.1561197.0120119-.3100155.0120119-.464356 0-17.5756969-14.5526132-32.1459786-32.2505589-32.1459786-.1014336 0-.2059815.0084509-.30786.0084509v-7.3896654c.1018785 0 .2064264-.0084509.30786-.0084509zm18.4885053 39.50063c0-10.1882555-8.2285816-18.3963261-18.4889502-18.3963261-.1014336 0-.2055366.0133435-.3074151.0146779v-7.3901102c.1018785-.0022239.2059815-.0182362.3074151-.0182362 14.3630924 0 25.9323109 11.5261701 25.9323109 25.7899946 0 .1565644-.0222443.3055676-.0262482.464356h-7.4402465c.0035591-.1587884.023134-.3077916.023134-.464356zm-13.1365461.3024772c-3.124868 0-5.6598192-2.5121482-5.6598192-5.6189745 0-3.1028233 2.5349512-5.6203089 5.6598192-5.6203089 3.1279821 0 5.6593742 2.5174856 5.6593742 5.6203089 0 3.1068263-2.5313921 5.6189745-5.6593742 5.6189745z" fill="#ff9845"/>
</svg>
