<svg height="76" viewBox="0 0 109 76" width="109" xmlns="http://www.w3.org/2000/svg" xmlns:xlink="http://www.w3.org/1999/xlink"><filter id="a" height="131.2%" width="108.3%" x="-4.1%" y="-15.6%"><feOffset dy="2" in="SourceAlpha" result="shadowOffsetOuter1"/><feGaussianBlur in="shadowOffsetOuter1" result="shadowBlurOuter1" stdDeviation="4.5"/><feColorMatrix in="shadowBlurOuter1" result="shadowMatrixOuter1" values="0 0 0 0 0   0 0 0 0 0   0 0 0 0 0  0 0 0 0.0811820652 0"/><feMerge><feMergeNode in="shadowMatrixOuter1"/><feMergeNode in="SourceGraphic"/></feMerge></filter><g fill="none" filter="url(#a)" transform="translate(13 11)"><g transform="translate(40 5)"><path d="m0 0h47v40h-47z" fill="#9eedc0"/><g fill="#fff" transform="matrix(-1 0 0 1 39.034 7.2)"><ellipse cx="4.728" cy="4.65" rx="4.15" ry="4.22"/><path d="m3.03018844 13.213458h24.21080956c0 6.6037772-5.3534192 11.9571963-11.9571964 11.9571963h-.2964168c-6.6037772 0-11.95719636-5.3534191-11.95719636-11.9571963zm18.38554616-8.56392538h6.8708658c.776915 0 1.406729.62981402 1.406729 1.40672899 0 .77691496-.629814 1.40672898-1.406729 1.40672898h-6.8708658c-.776915 0-1.406729-.62981402-1.406729-1.40672898 0-.77691497.629814-1.40672899 1.406729-1.40672899z"/></g></g><path d="m-2-2h63v54h-63z" fill="#39d15f" stroke="#fff" stroke-width="4"/><g fill="#fff" transform="translate(11 9)"><ellipse cx="5.936" cy="5.812" rx="5.21" ry="5.275"/><path d="m3.80385357 16.5168225h30.39229283c0 8.2547215-6.6917739 14.9464954-14.9464954 14.9464954h-.499302c-8.2547215 0-14.94649543-6.6917739-14.94649543-14.9464954zm23.07224553-10.70490672h8.6400947c.9711437 0 1.7584112.78726752 1.7584112 1.75841123 0 .9711437-.7872675 1.75841123-1.7584112 1.75841123h-8.6400947c-.9711437 0-1.7584112-.78726753-1.7584112-1.75841123 0-.97114371.7872675-1.75841123 1.7584112-1.75841123z"/></g></g></svg>