<svg height="20" viewBox="0 0 20 20" width="20" xmlns="http://www.w3.org/2000/svg">
    <path
        d="m5 2h8l4 4v10c0 1.1045695-.8954305 2-2 2h-10c-1.1045695 0-2-.8954305-2-2v-12c0-1.1045695.8954305-2 2-2zm1.25 4c-.13807119 0-.25.11192881-.25.25s.11192881.25.25.25h5.5c.1380712 0 .25-.11192881.25-.25s-.1119288-.25-.25-.25zm0 4c-.13807119 0-.25.1119288-.25.25s.11192881.25.25.25h7.5c.1380712 0 .25-.1119288.25-.25s-.1119288-.25-.25-.25zm0 4c-.13807119 0-.25.1119288-.25.25s.11192881.25.25.25h7.5c.1380712 0 .25-.1119288.25-.25s-.1119288-.25-.25-.25z"
        fill="none"
        stroke="#000000"
        stroke-linecap="round"
        stroke-linejoin="round"
        stroke-width="2"
    />
</svg>