<svg height="53" viewBox="0 0 32 53" width="32" xmlns="http://www.w3.org/2000/svg" xmlns:xlink="http://www.w3.org/1999/xlink"><mask id="a" fill="#fff"><path d="m0 0h24v32.567l-12-9.305-12 9.305z" fill="#fff" fill-rule="evenodd"/></mask><g fill="none" fill-rule="evenodd" transform="translate(0 2)"><g transform="translate(4 18)"><path d="m1 1v29.5257237l11-8.5293256 11 8.5293256v-29.5257237z" stroke="#021b44" stroke-width="2"/><g fill-rule="nonzero"><path d="m2 2h6v32h-6z" fill="#1d7dfe" mask="url(#a)"/><path d="m6 2h6v32h-6z" fill="#f00" mask="url(#a)"/><path d="m10 2h6v32h-6z" fill="#ffce48" mask="url(#a)"/><path d="m14 2h6v32h-6z" fill="#32d577" mask="url(#a)"/><path d="m18 2h6v32h-6z" fill="#ffad39" mask="url(#a)"/></g><path d="m1.5 1.5v28.0053276l10.5-8.141629 10.5 8.141629v-28.0053276z" stroke="#021b44" stroke-width="3"/></g><g fill-rule="nonzero"><circle cx="16" cy="14" fill="#fae793" r="14" stroke="#021b44" stroke-width="3"/><path d="m13.4679334 23.7555638c5.5228475 0 10-4.4771525 10-10 0-5.52284749-19.99999998-5.52284749-19.99999998 0 0 5.5228475 4.4771525 10 9.99999998 10z" fill="#ffd51d" transform="matrix(.70710678 .70710678 -.70710678 .70710678 15.742055 -4.636684)"/></g></g></svg>