<?xml version="1.0" encoding="UTF-8" standalone="no"?>
<svg
   xmlns:dc="http://purl.org/dc/elements/1.1/"
   xmlns:cc="http://creativecommons.org/ns#"
   xmlns:rdf="http://www.w3.org/1999/02/22-rdf-syntax-ns#"
   xmlns:svg="http://www.w3.org/2000/svg"
   xmlns="http://www.w3.org/2000/svg"
   id="svg4"
   version="1.1"
   viewBox="0 0 327 544"
   height="544"
   width="327">
  <path
     id="path2"
     d="M229.0716,218.485826 C225.061933,221.051296 215.8558,224.779268 211.3156,224.779268 L211.3156,224.786926 C206.1314,219.377231 198.832733,216 190.738267,216 C175.017,216 162.268867,228.733921 162.268867,244.431535 C162.268867,246.612568 162.521867,248.739993 162.989533,250.780116 L162.984933,250.780116 C141.659333,250.221074 118.3358,239.544123 104.295067,221.270318 C95.6624,236.195993 103.1328,252.795733 112.929267,258.844116 C109.575867,259.096834 103.402667,258.458147 100.497,255.626174 C100.302267,265.532718 105.070933,278.658735 122.458933,283.420554 C119.110133,285.220212 113.182267,284.704055 110.604733,284.321149 C111.5094,292.683815 123.233267,303.616547 136.053467,303.616547 C131.484133,308.896055 114.2924,318.471768 95,315.425368 C108.102333,323.38828 123.3728,328 139.535667,328 C185.466667,328 221.1366,290.816766 219.216867,244.946161 C219.2092,244.895617 219.2092,244.845074 219.2046,244.789935 C219.2092,244.672 219.216867,244.554065 219.216867,244.431535 C219.216867,244.289094 219.2046,244.154311 219.2,244.016465 C223.3814,241.159986 228.991867,236.107159 233,229.456848 C230.675467,230.735754 223.701867,233.296629 217.2128,233.932253 C221.377333,231.686892 227.547467,224.333566 229.0716,218.485826"
     fill="#55ACEE" />
</svg>
