<svg xmlns="http://www.w3.org/2000/svg" width="240" height="399" viewBox="0 0 240 399">

    <path fill="#FF9845" d="M23.0749668,-9.32256277e-16 L216.528002,9.32256277e-16 C224.55167,-5.41667744e-16 227.461246,0.8354305 230.39458,2.40419433 C233.327913,3.97295817 235.63001,6.27505533 237.198774,9.20838867 C238.767538,12.141722 239.602968,15.0512981 239.602968,23.0749668 L239.602968,375.390149 C239.602968,383.413818 238.767538,386.323394 237.198774,389.256728 C235.63001,392.190061 233.327913,394.492158 230.39458,396.060922 C227.461246,397.629686 224.55167,398.465116 216.528002,398.465116 L23.0749668,398.465116 C15.0512981,398.465116 12.141722,397.629686 9.20838867,396.060922 C6.27505533,394.492158 3.97295817,392.190061 2.40419433,389.256728 C0.8354305,386.323394 -2.80605976e-14,383.413818 -2.90432136e-14,375.390149 L-2.78002052e-14,23.0749668 C-2.87828213e-14,15.0512981 0.8354305,12.141722 2.40419433,9.20838867 C3.97295817,6.27505533 6.27505533,3.97295817 9.20838867,2.40419433 C12.141722,0.8354305 15.0512981,5.41667744e-16 23.0749668,-9.32256277e-16 Z"/>
    <path fill="#FFF" d="M80.61572,159 C124.219728,159 160,194.776762 160,238.071288 C160,238.379969 159.980425,238.687761 159.975976,239 L145.092814,239 C145.097263,238.687761 145.116838,238.379969 145.116838,238.071288 C145.116838,202.919894 116.011611,173.779331 80.61572,173.779331 C80.4128527,173.779331 80.203757,173.796233 80,173.796233 L80,159.016902 C80.203757,159.016902 80.4128527,159 80.61572,159 Z M117.592731,238.00126 C117.592731,217.624749 101.135567,201.208608 80.6148302,201.208608 C80.4119629,201.208608 80.203757,201.235295 80,201.237964 L80,186.457743 C80.203757,186.453295 80.4119629,186.421271 80.6148302,186.421271 C109.341015,186.421271 132.479452,209.473611 132.479452,238.00126 C132.479452,238.314389 132.434963,238.612395 132.426956,238.929972 L117.546463,238.929972 C117.553581,238.612395 117.592731,238.314389 117.592731,238.00126 Z M91.3196383,238.606214 C85.0699025,238.606214 80,233.581918 80,227.368265 C80,221.162619 85.0699025,216.127648 91.3196383,216.127648 C97.5756025,216.127648 102.638387,221.162619 102.638387,227.368265 C102.638387,233.581918 97.5756025,238.606214 91.3196383,238.606214 Z"/>

</svg>
