<?xml version="1.0" encoding="UTF-8" standalone="no"?>
<svg
   xmlns:dc="http://purl.org/dc/elements/1.1/"
   xmlns:cc="http://creativecommons.org/ns#"
   xmlns:rdf="http://www.w3.org/1999/02/22-rdf-syntax-ns#"
   xmlns:svg="http://www.w3.org/2000/svg"
   xmlns="http://www.w3.org/2000/svg"
   id="svg6"
   version="1.1"
   viewBox="0 0 240 399"
   height="399"
   width="240">
  <path
     fill="#FF9845"
     d="M80.61572,159 C124.219728,159 160,194.776762 160,238.071288 C160,238.379969 159.980425,238.687761 159.975976,239 L145.092814,239 C145.097263,238.687761 145.116838,238.379969 145.116838,238.071288 C145.116838,202.919894 116.011611,173.779331 80.61572,173.779331 C80.4128527,173.779331 80.203757,173.796233 80,173.796233 L80,159.016902 C80.203757,159.016902 80.4128527,159 80.61572,159 Z M117.592731,238.00126 C117.592731,217.624749 101.135567,201.208608 80.6148302,201.208608 C80.4119629,201.208608 80.203757,201.235295 80,201.237964 L80,186.457743 C80.203757,186.453295 80.4119629,186.421271 80.6148302,186.421271 C109.341015,186.421271 132.479452,209.473611 132.479452,238.00126 C132.479452,238.314389 132.434963,238.612395 132.426956,238.929972 L117.546463,238.929972 C117.553581,238.612395 117.592731,238.314389 117.592731,238.00126 Z M91.3196383,238.606214 C85.0699025,238.606214 80,233.581918 80,227.368265 C80,221.162619 85.0699025,216.127648 91.3196383,216.127648 C97.5756025,216.127648 102.638387,221.162619 102.638387,227.368265 C102.638387,233.581918 97.5756025,238.606214 91.3196383,238.606214 Z"/>
</svg>
