<svg height="357" viewBox="0 0 214 357" width="214" xmlns="http://www.w3.org/2000/svg"><path d="m23.0749668 0h167.8500662c8.023669 0 10.933245.8354305 13.866578 2.40419433 2.933334 1.56876384 5.235431 3.870861 6.804195 6.80419434 1.568763 2.93333333 2.404194 5.84290943 2.404194 13.86657813v310.6785552c0 8.023668-.835431 10.933244-2.404194 13.866578-1.568764 2.933333-3.870861 5.23543-6.804195 6.804194-2.933333 1.568764-5.842909 2.404194-13.866578 2.404194h-167.8500662c-8.0236687 0-10.9332448-.83543-13.86657813-2.404194-2.93333334-1.568764-5.2354305-3.870861-6.80419434-6.804194-1.56876383-2.933334-2.40419433-5.84291-2.40419433-13.866578v-310.6785552c0-8.0236687.8354305-10.9332448 2.40419433-13.86657813 1.56876384-2.93333334 3.870861-5.2354305 6.80419434-6.80419434 2.93333333-1.56876383 5.84290943-2.40419433 13.86657813-2.40419433z" fill="#2da4d7"/><path d="m128.559227 160.435032 2.672888-2.423009c1.397512-1.293414-.349377-1.940121-2.212726-.76429l-40.0037647 25.456738-17.2942039-5.467614c-3.7266972-1.117039-3.7849268-3.703867.815215-5.585196l67.3134676-26.221028c3.086171-1.410997 6.055882.705498 4.89129 5.467613l-11.47124 54.558551c-.815215 3.880242-3.144401 4.762115-6.347031 2.998369l-16.707705-12.442578-12.6400352 14.987412c-2.2709561 0-1.8633486-.881873-2.6785636-3.05716l-6.6381793-22.10562z" fill="#fff"/></svg>
