<svg height="100" viewBox="0 0 100 100" width="100" xmlns="http://www.w3.org/2000/svg"><g fill="none"><path d="m6.46668289 0h87.06663421c2.2486065 0 3.0640056.23412663 3.8860625.67376749.822057.43964086 1.4672121 1.08479595 1.9068529 1.90685288.4396409.82205694.6737675 1.637456.6737675 3.88606252v87.06663421c0 2.2486065-.2341266 3.0640056-.6737675 3.8860625-.4396408.822057-1.0847959 1.4672121-1.9068529 1.9068529-.8220569.4396409-1.637456.6737675-3.8860625.6737675h-87.06663421c-2.24860652 0-3.06400558-.2341266-3.88606252-.6737675-.82205693-.4396408-1.46721202-1.0847959-1.90685288-1.9068529-.43964086-.8220569-.67376749-1.637456-.67376749-3.8860625v-87.06663421c0-2.24860652.23412663-3.06400558.67376749-3.88606252.43964086-.82205693 1.08479595-1.46721202 1.90685288-1.90685288.82205694-.43964086 1.637456-.67376749 3.88606252-.67376749z" fill="#2a9ced"/><path d="m63.0490057 39.354565 1.617801-1.4684906c.8458622-.7838872-.2114655-1.1758308-1.3392818-.4632061l-24.2128049 15.428326-10.4675445-3.3137051c-2.2556325-.6769936-2.2908768-2.244768.4934196-3.3849676l40.7423617-15.8915321c1.8679457-.8551497 3.6654028.4275749 2.9605177 3.3137051l-6.9431188 33.0657887c-.4934196 2.3516617-1.9031899 2.8861303-3.841624 1.8171931l-10.1125581-7.5409563-7.6505478 9.0832799c-1.374526 0-1.1278162-.5344686-1.6212358-1.8528244l-4.0178454-13.3973454z" fill="#fff"/></g></svg>