<svg height="100" viewBox="0 0 100 100" width="100" xmlns="http://www.w3.org/2000/svg">
    <path d="m72.6051333 31.8877949c-1.4237222.9162393-4.6925666 2.2476581-6.3046666 2.2476581v.002735c-1.8407667-1.9320342-4.4323223-3.138188-7.3064445-3.138188-5.5821889 0-10.1087 4.5478291-10.1087 10.1541197 0 .7789401.0898334 1.538735.2558889 2.2673504h-.0016333c-7.5721334-.1996581-15.8536778-4.0128547-20.8391556-10.5392137-3.0652222 5.3305983-.4126889 11.2590769 3.0657667 13.4192137-1.1907.0902564-3.3826333-.1378462-4.4143556-1.149265-.0691444 3.5380513 1.6240778 8.2259146 7.7980778 9.9265641-1.1890667.6427351-3.2938889.4583932-4.2091.3216411.3212222 2.9866666 4.4840445 6.8912136 9.0361445 6.8912136-1.6224445 1.8855385-7.7267556 5.3054359-14.5769556 4.2174359 4.6522778 2.8438975 10.0744 4.4909402 15.8133889 4.4909402 16.3088333 0 28.9742444-13.2797265 28.2926-29.6620855-.0027222-.0180513-.0027222-.0361025-.0043556-.0557948.0016334-.0421197.0043556-.0842394.0043556-.128 0-.0508718-.0043556-.0990086-.0059889-.1482394 1.4847-1.0201709 3.4768222-2.8247521 4.9-5.1998632-.8253778.4567521-3.3015111 1.3713504-5.6056 1.598359 1.4787111-.8019146 3.6695556-3.4281026 4.2107333-5.5165812" fill="#55acee"/>
</svg>
