<svg height="80" viewBox="0 0 91 80" width="91" xmlns="http://www.w3.org/2000/svg" xmlns:xlink="http://www.w3.org/1999/xlink"><filter id="a" height="131.2%" width="108.3%" x="-4.1%" y="-15.6%"><feOffset dy="2" in="SourceAlpha" result="shadowOffsetOuter1"/><feGaussianBlur in="shadowOffsetOuter1" result="shadowBlurOuter1" stdDeviation="4.5"/><feColorMatrix in="shadowBlurOuter1" result="shadowMatrixOuter1" values="0 0 0 0 0   0 0 0 0 0   0 0 0 0 0  0 0 0 0.0811820652 0"/><feMerge><feMergeNode in="shadowMatrixOuter1"/><feMergeNode in="SourceGraphic"/></feMerge></filter><g fill="none" fill-rule="evenodd" filter="url(#a)" transform="translate(2 9)"><g transform="matrix(.98480775 -.17364818 .17364818 .98480775 27.245751 9.520363)"><path d="m.11007087 49.6955665s28.11246943-4.5816191 37.23464103-17.6834295c7.2568523-10.4229033 5.0973578-20.9627243 5.0973578-20.9627243" stroke="#cae5f8" stroke-linecap="round" stroke-linejoin="round" stroke-width="4"/><g fill="#cae5f8"><path d="m14.0043075 46.9135307s3.1978959-2.0561126 6.3460902-1.6223396c3.1486265.4334857 6.5058554 3.2909291 6.5058554 3.2909291s-2.1851376 3.3110378-6.1104043 3.0760535c-3.9251225-.2348407-6.7415413-4.744643-6.7415413-4.744643m8.3820058-4.4516579s3.3442632-1.8099248 6.4509676-1.1405931c3.1067044.6693318 6.2383316 3.7708084 6.2383316 3.7708084s-2.4294673 3.137385-6.3254893 2.6079522c-3.8964542-.5295765-6.3638099-5.2381675-6.3638099-5.2381675m8.0841344-3.8673881s3.0090301-2.3225525 6.1832998-2.1596722c3.1741256.1623058 6.7650235 2.7217099 6.7650235 2.7217099s-1.8919707 3.4859833-5.8228558 3.5878194c-3.9311732.1018361-7.1254675-4.1498571-7.1254675-4.1498571m6.1970604-5.6644727s1.8407981-3.2344812 4.6415258-4.2030014c2.8008611-.9688075 6.7501711.1567041 6.7501711.1567041s-.4916972 3.9282306-3.8605165 5.4113894c-3.3688194 1.4833024-7.5311804-1.3650921-7.5311804-1.3650921m4.2912957-6.8219982s.7662871-3.3744345 3.094444-5.09551c2.3280255-1.7214685 6.3441684-1.9971812 6.3441684-1.9971812s.6967918 3.546935-2.0102391 5.8918677c-2.7068995 2.3454566-7.4283733 1.2008235-7.4283733 1.2008235m2.2643096-7.3709613s.075136-3.2167213 1.8798657-5.2130423c1.8041188-1.9964428 5.4138226-2.9851631 5.4138226-2.9851631s1.2900176 3.1053882-.744396 5.7401081c-2.0342915 2.6347198-6.5492923 2.4580973-6.5492923 2.4580973"/><path d="m40.2512377 12.6150173s-1.7856772-3.01605049-1.2456703-5.91113409c.5394676-2.89481382 3.3535043-5.9095548 3.3535043-5.9095548s3.0011504 2.11906283 2.6140807 5.73749696c-.3872067 3.61883443-4.7219147 6.08319193-4.7219147 6.08319193" transform="matrix(.89879405 -.43837115 .43837115 .89879405 1.306918 19.070886)"/><path d="m14.2470525 45.9994475s3.6699882-1.0029922 5.4467091-3.6304785c1.7764327-2.6276299 1.8820304-7.0275528 1.8820304-7.0275528s-3.9320376-.586168-6.375479 2.4857202c-2.4432973 3.0721753-.9532605 8.1723111-.9532605 8.1723111m11.9178268-5.3611152s3.0991724-1.7027292 4.1329444-4.4638035c1.0331021-2.7610742.1689459-6.7625613.1689459-6.7625613s-3.6833152.3225928-5.2225851 3.630138.9206948 7.5962268.9206948 7.5962268"/><path d="m36.5111438 30.378335c.7521942-2.3736873-.1489743-5.7005965-.1489743-5.7005965s-3.0913704.4478931-4.2469109 3.3061399c-1.1553147 2.8583587 1.1032696 6.3505432 1.1032696 6.3505432s2.5398549-1.5820597 3.2926156-3.9560866z" transform="matrix(.98162718 -.190809 .190809 .98162718 -4.999841 7.086666)"/><path d="m39.9191507 27.5582319s1.4874212-3.2066739.6764655-6.0490981c-.8117612-2.8422913-3.8937124-5.5667398-3.8937124-5.5667398s-2.7809102 2.4354688-2.0523653 6.0183208c.7286788 3.5825843 5.2696122 5.5975171 5.2696122 5.5975171" transform="matrix(.99756405 .06975647 -.06975647 .99756405 1.608997 -2.575651)"/><path d="m41.566085 17.9968511s1.0723136-3.1321494.0427919-5.6888738c-1.0300239-2.55672316-4.1599144-4.76993493-4.1599144-4.76993493s-2.3497958 2.54891183-1.325178 5.80212493c1.0247444 3.2528376 5.4423005 4.6566838 5.4423005 4.6566838" transform="matrix(.98768834 -.15643447 .15643447 .98768834 -1.517537 6.25187)"/></g></g><g transform="matrix(-.98480775 -.17364818 -.17364818 .98480775 59.754201 9.520359)"><path d="m.11007087 49.6955665s28.11246943-4.5816191 37.23464103-17.6834295c7.2568523-10.4229033 5.0973578-20.9627243 5.0973578-20.9627243" stroke="#cae5f8" stroke-linecap="round" stroke-linejoin="round" stroke-width="4"/><g fill="#cae5f8"><path d="m14.0043075 46.9135307s3.1978959-2.0561126 6.3460902-1.6223396c3.1486265.4334857 6.5058554 3.2909291 6.5058554 3.2909291s-2.1851376 3.3110378-6.1104043 3.0760535c-3.9251225-.2348407-6.7415413-4.744643-6.7415413-4.744643m8.3820058-4.4516579s3.3442632-1.8099248 6.4509676-1.1405931c3.1067044.6693318 6.2383316 3.7708084 6.2383316 3.7708084s-2.4294673 3.137385-6.3254893 2.6079522c-3.8964542-.5295765-6.3638099-5.2381675-6.3638099-5.2381675m8.0841344-3.8673881s3.0090301-2.3225525 6.1832998-2.1596722c3.1741256.1623058 6.7650235 2.7217099 6.7650235 2.7217099s-1.8919707 3.4859833-5.8228558 3.5878194c-3.9311732.1018361-7.1254675-4.1498571-7.1254675-4.1498571m6.1970604-5.6644727s1.8407981-3.2344812 4.6415258-4.2030014c2.8008611-.9688075 6.7501711.1567041 6.7501711.1567041s-.4916972 3.9282306-3.8605165 5.4113894c-3.3688194 1.4833024-7.5311804-1.3650921-7.5311804-1.3650921m4.2912957-6.8219982s.7662871-3.3744345 3.094444-5.09551c2.3280255-1.7214685 6.3441684-1.9971812 6.3441684-1.9971812s.6967918 3.546935-2.0102391 5.8918677c-2.7068995 2.3454566-7.4283733 1.2008235-7.4283733 1.2008235m2.2643096-7.3709613s.075136-3.2167213 1.8798657-5.2130423c1.8041188-1.9964428 5.4138226-2.9851631 5.4138226-2.9851631s1.2900176 3.1053882-.744396 5.7401081c-2.0342915 2.6347198-6.5492923 2.4580973-6.5492923 2.4580973"/><path d="m40.2512377 12.6150173s-1.7856772-3.01605049-1.2456703-5.91113409c.5394676-2.89481382 3.3535043-5.9095548 3.3535043-5.9095548s3.0011504 2.11906283 2.6140807 5.73749696c-.3872067 3.61883443-4.7219147 6.08319193-4.7219147 6.08319193" transform="matrix(.89879405 -.43837115 .43837115 .89879405 1.306918 19.070886)"/><path d="m14.2470525 45.9994475s3.6699882-1.0029922 5.4467091-3.6304785c1.7764327-2.6276299 1.8820304-7.0275528 1.8820304-7.0275528s-3.9320376-.586168-6.375479 2.4857202c-2.4432973 3.0721753-.9532605 8.1723111-.9532605 8.1723111m11.9178268-5.3611152s3.0991724-1.7027292 4.1329444-4.4638035c1.0331021-2.7610742.1689459-6.7625613.1689459-6.7625613s-3.6833152.3225928-5.2225851 3.630138.9206948 7.5962268.9206948 7.5962268"/><path d="m36.5111438 30.378335c.7521942-2.3736873-.1489743-5.7005965-.1489743-5.7005965s-3.0913704.4478931-4.2469109 3.3061399c-1.1553147 2.8583587 1.1032696 6.3505432 1.1032696 6.3505432s2.5398549-1.5820597 3.2926156-3.9560866z" transform="matrix(.98162718 -.190809 .190809 .98162718 -4.999841 7.086666)"/><path d="m39.9191507 27.5582319s1.4874212-3.2066739.6764655-6.0490981c-.8117612-2.8422913-3.8937124-5.5667398-3.8937124-5.5667398s-2.7809102 2.4354688-2.0523653 6.0183208c.7286788 3.5825843 5.2696122 5.5975171 5.2696122 5.5975171" transform="matrix(.99756405 .06975647 -.06975647 .99756405 1.608997 -2.575651)"/><path d="m41.566085 17.9968511s1.0723136-3.1321494.0427919-5.6888738c-1.0300239-2.55672316-4.1599144-4.76993493-4.1599144-4.76993493s-2.3497958 2.54891183-1.325178 5.80212493c1.0247444 3.2528376 5.4423005 4.6566838 5.4423005 4.6566838" transform="matrix(.98768834 -.15643447 .15643447 .98768834 -1.517537 6.25187)"/></g></g><path d="m26.5608998 4.20200706c1.2239725-.8939207 9.4078719-3.52051919 17.5772549-3.5307493 8.35853-.01046697 16.7018635 2.61613152 17.5598134 3.5307493 0 20.90154324-5.6328221 29.54619334-17.5685341 35.37637674-11.5857895-5.5977408-17.5685342-14.690815-17.5685342-35.37637674z" stroke="#266ff0" stroke-width="5"/></g></svg>