<svg height="113" viewBox="0 0 112 113" width="112" xmlns="http://www.w3.org/2000/svg" xmlns:xlink="http://www.w3.org/1999/xlink"><filter id="a" height="114.5%" width="111.1%" x="-5.5%" y="-7.3%"><feOffset dy="2" in="SourceAlpha" result="shadowOffsetOuter1"/><feGaussianBlur in="shadowOffsetOuter1" result="shadowBlurOuter1" stdDeviation="4.5"/><feColorMatrix in="shadowBlurOuter1" result="shadowMatrixOuter1" values="0 0 0 0 0   0 0 0 0 0   0 0 0 0 0  0 0 0 0.0811820652 0"/><feMerge><feMergeNode in="shadowMatrixOuter1"/><feMergeNode in="SourceGraphic"/></feMerge></filter><g fill="none" filter="url(#a)" transform="translate(8 6)"><path d="m68 34c-4.418278 0-8-3.581722-8-8s3.581722-8 8-8 8 3.581722 8 8-3.581722 8-8 8zm-15.9675689.7240192c-1.0670402-15.7669628-.3663201-26.23824459 2.7124404-26.23824459 3.0787606 0-2.9784405 15.38848269 7.2618013 26.23824459 10.2402418 10.8497618 33.1078857 7.5240013 33.1078857 10.2189617 0 2.6949605-4.4558807 2.5148405-15.3026026 2.5148405s-16.4122029-3.6419207-12.5726822 16.0139627c3.8395207 19.6558835 15.9235228 25.9395645 14.0265624 29.3724851-.947926 1.7154576-6.925092-3.6065867-11.596842-10.3246017-4.6772116-6.7258689-8.0497594-14.8484223-10.2797618-14.3351225-4.4574007 1.0260001 4.4574008 28.981085 2.6174405 28.981085s-8.7088415-7.2245613-11.0405219-28.981085c-2.3316804-21.7565238 1.0662802-24.4294443 1.0662802-33.4605258z" fill="#39d15f"/><path d="m18 26c-4.418278 0-8-3.581722-8-8s3.581722-8 8-8 8 3.581722 8 8-3.581722 8-8 8zm-15.96756893.7240192c-1.06704019-15.7669628-.36632006-26.23824458 2.71244047-26.23824458s-2.97844052 15.38848268 7.26180126 26.23824458c10.2402418 10.8497618 33.1078857 7.5240013 33.1078857 10.2189617 0 2.6949605-4.4558807 2.5148405-15.3026026 2.5148405s-16.4122029-3.6419207-12.5726822 16.0139627c3.8395207 19.6558835 15.9235228 25.9395645 14.0265624 29.3724851-.947926 1.7154576-6.925092-3.6065867-11.596842-10.3246017-4.6772116-6.7258689-8.0497594-14.8484223-10.27976176-14.3351225-4.45740077 1.0260001 4.45740076 28.981085 2.61744046 28.981085s-8.70884151-7.2245613-11.04052192-28.981085c-2.3316804-21.7565238 1.06628019-24.4294443 1.06628019-33.4605258z" fill="#9eedc0" transform="matrix(-1 0 0 1 45.263 0)"/></g></svg>