<svg xmlns="http://www.w3.org/2000/svg" width="200" height="340" viewBox="0 0 200 340">
  <g fill="none">
  <path fill="#55ACEE" d="M141.494933,135.598031 C138.938044,137.247262 133.067467,139.643815 130.172267,139.643815 L130.172267,139.648738 C126.8664,136.171077 122.212178,134 117.050489,134 C107.025333,134 98.8960889,142.186092 98.8960889,152.277415 C98.8960889,153.679508 99.0574222,155.047138 99.3556444,156.358646 L99.3527111,156.358646 C85.7537778,155.999262 70.8808,149.135508 61.9272889,137.388062 C56.4224,146.983138 61.1861333,157.6544 67.4331556,161.542646 C65.2947556,161.705108 61.3582222,161.294523 59.5053333,159.473969 C59.3811556,165.842462 62.4220444,174.280615 73.5100444,177.341785 C71.3745778,178.498708 67.5944889,178.166892 65.9508444,177.920738 C66.5277333,183.296738 74.0038222,190.324923 82.1790222,190.324923 C79.2652444,193.718892 68.3024,199.874708 56,197.916308 C64.3551111,203.035323 74.0928,206 84.3995556,206 C113.688889,206 136.434933,182.096492 135.210756,152.608246 C135.205867,152.575754 135.205867,152.543262 135.202933,152.507815 C135.205867,152.432 135.210756,152.356185 135.210756,152.277415 C135.210756,152.185846 135.202933,152.0992 135.2,152.010585 C137.8664,150.174277 141.444089,146.926031 144,142.650831 C142.517689,143.472985 138.070756,145.119262 133.9328,145.527877 C136.588444,144.084431 140.523022,139.357292 141.494933,135.598031"/>
  </g>
</svg>
