<svg xmlns="http://www.w3.org/2000/svg" width="327" height="544" viewBox="0 0 327 544">

    <path fill="#FFF" d="M23.0749668,-9.32256277e-16 L303.925033,9.32256277e-16 C311.948702,-5.41667744e-16 314.858278,0.8354305 317.791611,2.40419433 C320.724945,3.97295817 323.027042,6.27505533 324.595806,9.20838867 C326.164569,12.141722 327,15.0512981 327,23.0749668 L327,520.925033 C327,528.948702 326.164569,531.858278 324.595806,534.791611 C323.027042,537.724945 320.724945,540.027042 317.791611,541.595806 C314.858278,543.164569 311.948702,544 303.925033,544 L23.0749668,544 C15.0512981,544 12.141722,543.164569 9.20838867,541.595806 C6.27505533,540.027042 3.97295817,537.724945 2.40419433,534.791611 C0.8354305,531.858278 3.61111829e-16,528.948702 -6.21504185e-16,520.925033 L6.21504185e-16,23.0749668 C-3.61111829e-16,15.0512981 0.8354305,12.141722 2.40419433,9.20838867 C3.97295817,6.27505533 6.27505533,3.97295817 9.20838867,2.40419433 C12.141722,0.8354305 15.0512981,5.41667744e-16 23.0749668,-9.32256277e-16 Z"/>
    <path fill="#55ACEE" d="M229.0716,218.485826 C225.061933,221.051296 215.8558,224.779268 211.3156,224.779268 L211.3156,224.786926 C206.1314,219.377231 198.832733,216 190.738267,216 C175.017,216 162.268867,228.733921 162.268867,244.431535 C162.268867,246.612568 162.521867,248.739993 162.989533,250.780116 L162.984933,250.780116 C141.659333,250.221074 118.3358,239.544123 104.295067,221.270318 C95.6624,236.195993 103.1328,252.795733 112.929267,258.844116 C109.575867,259.096834 103.402667,258.458147 100.497,255.626174 C100.302267,265.532718 105.070933,278.658735 122.458933,283.420554 C119.110133,285.220212 113.182267,284.704055 110.604733,284.321149 C111.5094,292.683815 123.233267,303.616547 136.053467,303.616547 C131.484133,308.896055 114.2924,318.471768 95,315.425368 C108.102333,323.38828 123.3728,328 139.535667,328 C185.466667,328 221.1366,290.816766 219.216867,244.946161 C219.2092,244.895617 219.2092,244.845074 219.2046,244.789935 C219.2092,244.672 219.216867,244.554065 219.216867,244.431535 C219.216867,244.289094 219.2046,244.154311 219.2,244.016465 C223.3814,241.159986 228.991867,236.107159 233,229.456848 C230.675467,230.735754 223.701867,233.296629 217.2128,233.932253 C221.377333,231.686892 227.547467,224.333566 229.0716,218.485826"/>

</svg>
