<svg xmlns="http://www.w3.org/2000/svg" width="200" height="340" viewBox="0 0 200 340">
  <g fill="none">
        <path fill="#FFF" d="M68.492576,138 C103.375783,138 132,166.62141 132,201.25703 C132,201.503975 131.98434,201.750208 131.980781,202 L120.074251,202 C120.07781,201.750208 120.09347,201.503975 120.09347,201.25703 C120.09347,173.135915 96.8092892,149.823465 68.492576,149.823465 C68.3302822,149.823465 68.1630056,149.836986 68,149.836986 L68,138.013521 C68.1630056,138.013521 68.3302822,138 68.492576,138 Z M98.0741845,201.201008 C98.0741845,184.899799 84.9084539,171.766886 68.4918642,171.766886 C68.3295704,171.766886 68.1630056,171.788236 68,171.790371 L68,159.966195 C68.1630056,159.962636 68.3295704,159.937017 68.4918642,159.937017 C91.472812,159.937017 109.983562,178.378889 109.983562,201.201008 C109.983562,201.451511 109.947971,201.689916 109.941564,201.943978 L98.0371701,201.943978 C98.0428646,201.689916 98.0741845,201.451511 98.0741845,201.201008 Z M77.0557106,201.684972 C72.055922,201.684972 68,197.665534 68,192.694612 C68,187.730095 72.055922,183.702118 77.0557106,183.702118 C82.060482,183.702118 86.1107095,187.730095 86.1107095,192.694612 C86.1107095,197.665534 82.060482,201.684972 77.0557106,201.684972 Z"/>
  </g>
</svg>
