<svg height="12" viewBox="0 0 11 12" width="11" xmlns="http://www.w3.org/2000/svg">
    <path
        d="m5.44483956 3.22501028c.78001814 0 1.41234778-.64412597 1.41234778-1.43869562 0-.79456964-.63232964-1.43869561-1.41234778-1.43869561-.78001813 0-1.41234777.64412597-1.41234777 1.43869561 0 .79456965.63232964 1.43869562 1.41234777 1.43869562zm.40152387.29923678c2.3110719-.01684354 4.17363477-.65713074 4.45143047.00007703.2846636.67345609-.50883436.77220436-1.22795434.93477034-1.28814838.29120189-2.162002.51174174-2.26317447 2.0429894-.17338363 2.62416541 1.44809236 5.27776877.68218467 5.47178277-.61951046.1569298-.85773914-.2724507-1.3039961-1.5527791-.42147859-1.20923832-.38350989-1.91100993-.68485366-1.91505387-.30134377.00404394-.26337507.70581555-.68485366 1.91505387-.44625696 1.2803284-.68448564 1.7097089-1.3039961 1.5527791-.76590769-.194014.8555683-2.84761736.68218467-5.47178277-.10117247-1.53124766-.97502609-1.75178751-2.26317447-2.0429894-.71911998-.16256598-1.51261793-.26131425-1.2279543-.93477034.28290042-.66928469 2.76729169-.00829111 5.14415729-.00007703z"
        fill="#ff0000"
    />
</svg>