<svg xmlns="http://www.w3.org/2000/svg" width="102" height="87" viewBox="0 0 102 87">
  <defs>
    <filter id="group-16-a" width="111.1%" height="114.5%" x="-5.5%" y="-7.3%" filterUnits="objectBoundingBox">
      <feOffset dy="2" in="SourceAlpha" result="shadowOffsetOuter1"/>
      <feGaussianBlur in="shadowOffsetOuter1" result="shadowBlurOuter1" stdDeviation="4.5"/>
      <feColorMatrix in="shadowBlurOuter1" result="shadowMatrixOuter1" values="0 0 0 0 0   0 0 0 0 0   0 0 0 0 0  0 0 0 0.0811820652 0"/>
      <feMerge>
        <feMergeNode in="shadowMatrixOuter1"/>
        <feMergeNode in="SourceGraphic"/>
      </feMerge>
    </filter>
  </defs>
  <g fill="none" filter="url(#group-16-a)" transform="translate(13 11)">
    <path stroke="#39D15F" stroke-width="4" d="M8,-2 L68,-2 C73.5228475,-2 78,2.4771525 78,8 L78,52.3466667 C78,57.8695142 73.5228475,62.3466667 68,62.3466667 L8,62.3466667 C2.4771525,62.3466667 -2,57.8695142 -2,52.3466667 L-2,8 C-2,2.4771525 2.4771525,-2 8,-2 Z"/>
    <path fill="#9EEDC0" stroke="#39D15F" stroke-width="4" d="M5.78666667,-2 L70.2133333,-2 C74.5137906,-2 78,1.48620941 78,5.78666667 L78,7.78666667 L-2,7.78666667 L-2,5.78666667 C-2,1.48620941 1.48620941,-2 5.78666667,-2 Z"/>
    <path fill="#9EEDC0" d="M50.7843634,45.5388819 L50.7843634,57.7439868 L41.6729787,57.7439868 L41.6729787,45.5388819 L33.5444227,45.5388819 L46.761814,18.8906535 L59.9792053,45.5388819 L50.7843634,45.5388819 Z" transform="rotate(-30 46.762 38.317)"/>
  </g>
</svg>
