<svg height="122" viewBox="0 0 80 122" width="80" xmlns="http://www.w3.org/2000/svg" xmlns:xlink="http://www.w3.org/1999/xlink"><filter id="a" height="114.5%" width="111.1%" x="-5.5%" y="-7.3%"><feOffset dy="2" in="SourceAlpha" result="shadowOffsetOuter1"/><feGaussianBlur in="shadowOffsetOuter1" result="shadowBlurOuter1" stdDeviation="4.5"/><feColorMatrix in="shadowBlurOuter1" result="shadowMatrixOuter1" values="0 0 0 0 0   0 0 0 0 0   0 0 0 0 0  0 0 0 0.0811820652 0"/><feMerge><feMergeNode in="shadowMatrixOuter1"/><feMergeNode in="SourceGraphic"/></feMerge></filter><g fill="none" filter="url(#a)" transform="translate(12 10)"><circle cx="27" cy="80" fill="#cae5f8" r="21"/><g stroke="#fff"><path d="m53.0281545 49.2053811-.7934014 20.5907971c-.4804605 12.4691818-11.9392831 22.1532957-25.5238212 21.7233707-13.5930114-.4301932-24.29290739-10.8291008-23.81206679-23.3081459l.79340135-20.590797c.15909919-4.1290315 3.89723759-7.2882181 8.27919044-7.1495375l33.325509 1.0546895c4.3904262.1389487 7.8906678 3.5407283 7.7311886 7.6796231z" fill="#266ff0" stroke-width="3.4"/><rect fill="#266ff0" height="57.167" rx="7.485" stroke-width="4" transform="matrix(.99862953 .05233596 -.05233596 .99862953 1.486111 -1.270276)" width="14.97" x="17.512" y="-.842"/><rect fill="#266ff0" height="57.167" rx="7.485" stroke-width="4" transform="matrix(.9961947 -.08715574 .08715574 .9961947 -2.580127 .865365)" width="14.97" x="1.134" y="1.397"/><path d="m40.1031486 30.9609446c3.4728577.8445356 5.600441 4.4309806 4.8186761 7.9977817l-3.0074153 13.7213279c-.7891163 3.6003417-4.258817 5.8840891-7.767558 5.0308275-3.4728577-.8445356-5.600441-4.4309806-4.8186761-7.9977817l3.0074153-13.7213279c.7891163-3.6003417 4.258817-5.8840891 7.767558-5.0308275z" fill="#266ff0" stroke-width="4"/><path d="m21.1366962 60.196589 8.8636622 15.5998492-3.7507006-.288563c-11.1590778-.858532-16.98240291-3.1178838-17.35653968-7.7753406-.36550191-4.5499654-.36550191-11.3819849-.00642196-20.4480984 0-3.3827441 2.74225594-6.125 6.12500004-6.125s6.125 2.7422559 6.125 6.125z" fill="#266ff0" stroke-width="4" transform="matrix(.1391731 .99026807 -.99026807 .1391731 73.703174 31.888197)"/><path d="m50.9741126 36.874803c3.4003507.3399193 5.8039792 3.6129803 5.5274145 7.2249597l-.9548805 12.4708927c-.2790762 3.6447803-3.2005297 6.4457783-6.6409564 6.1018528-3.4003507-.3399193-5.8039792-3.6129804-5.5274145-7.2249598l.9548805-12.4708927c.2790763-3.6447802 3.2005297-6.4457782 6.6409564-6.1018527z" fill="#266ff0" stroke-width="4"/><path d="m16.4582098 61.1312676c7.6007731 2.7709133 10.7620344 7.7226651 9.483784 14.8552555" stroke-linecap="round" stroke-linejoin="round" stroke-width="4"/></g><path d="m4.594 65.089v4.636h5.753v-5.899z" fill="#266ff0"/></g></svg>