<svg height="100" viewBox="0 0 100 100" width="100" xmlns="http://www.w3.org/2000/svg"><g fill="none"><path d="m6.46668289 0h87.06663421c2.2486065 0 3.0640056.23412663 3.8860625.67376749.822057.43964086 1.4672121 1.08479595 1.9068529 1.90685288.4396409.82205694.6737675 1.637456.6737675 3.88606252v87.06663421c0 2.2486065-.2341266 3.0640056-.6737675 3.8860625-.4396408.822057-1.0847959 1.4672121-1.9068529 1.9068529-.8220569.4396409-1.637456.6737675-3.8860625.6737675h-87.06663421c-2.24860652 0-3.06400558-.2341266-3.88606252-.6737675-.82205693-.4396408-1.46721202-1.0847959-1.90685288-1.9068529-.43964086-.8220569-.67376749-1.637456-.67376749-3.8860625v-87.06663421c0-2.24860652.23412663-3.06400558.67376749-3.88606252.43964086-.82205693 1.08479595-1.46721202 1.90685288-1.90685288.82205694-.43964086 1.637456-.67376749 3.88606252-.67376749z" fill="#ff9845"/><path d="m30.30786 30c21.8020042 0 39.69214 17.8883811 39.69214 39.535644 0 .1543405-.0097875.3082363-.0120119.464356h-7.4415811c.0022244-.1561197.0120119-.3100155.0120119-.464356 0-17.5756969-14.5526132-32.1459786-32.2505589-32.1459786-.1014336 0-.2059815.0084509-.30786.0084509v-7.3896654c.1018785 0 .2064264-.0084509.30786-.0084509zm18.4885053 39.50063c0-10.1882555-8.2285816-18.3963261-18.4889502-18.3963261-.1014336 0-.2055366.0133435-.3074151.0146779v-7.3901102c.1018785-.0022239.2059815-.0182362.3074151-.0182362 14.3630924 0 25.9323109 11.5261701 25.9323109 25.7899946 0 .1565644-.0222443.3055676-.0262482.464356h-7.4402465c.0035591-.1587884.023134-.3077916.023134-.464356zm-13.1365461.3024772c-3.124868 0-5.6598192-2.5121482-5.6598192-5.6189745 0-3.1028233 2.5349512-5.6203089 5.6598192-5.6203089 3.1279821 0 5.6593742 2.5174856 5.6593742 5.6203089 0 3.1068263-2.5313921 5.6189745-5.6593742 5.6189745z" fill="#fff"/></g></svg>