<svg height="100" viewBox="0 0 100 100" width="100" xmlns="http://www.w3.org/2000/svg">
    <path d="m34.1199996 28h33.7600008c3.3799825 0 6.1199996 2.7400171 6.1199996 6.1199996v33.7600008c0 3.3799825-2.7400171 6.1199996-6.1199996 6.1199996h-33.7600008c-3.3799825 0-6.1199996-2.7400171-6.1199996-6.1199996v-33.7600008c0-3.3799825 2.7400171-6.1199996 6.1199996-6.1199996zm25.5371655 45.9599987v-18.3621485h4.5263311l.5998366-6.3276981h-5.1261677l.0076902-3.1670738c0-1.6503612.1400259-2.5346623 2.256757-2.5346623h2.829678v-6.3284147h-4.526972c-5.4376214 0-7.3515231 3.0696143-7.3515231 8.2317404v3.799127h-3.3894613v6.3276981h3.3894613v18.3614319z" fill="#4465b8"/>
</svg>
