<svg height="100" viewBox="0 0 100 100" width="100" xmlns="http://www.w3.org/2000/svg"><g fill="none" fill-rule="evenodd"><path d="m6.46668289 0h87.06663421c2.2486065 0 3.0640056.23412663 3.8860625.67376749.822057.43964086 1.4672121 1.08479595 1.9068529 1.90685288.4396409.82205694.6737675 1.637456.6737675 3.88606252v87.06663421c0 2.2486065-.2341266 3.0640056-.6737675 3.8860625-.4396408.822057-1.0847959 1.4672121-1.9068529 1.9068529-.8220569.4396409-1.637456.6737675-3.8860625.6737675h-87.06663421c-2.24860652 0-3.06400558-.2341266-3.88606252-.6737675-.82205693-.4396408-1.46721202-1.0847959-1.90685288-1.9068529-.43964086-.8220569-.67376749-1.637456-.67376749-3.8860625v-87.06663421c0-2.24860652.23412663-3.06400558.67376749-3.88606252.43964086-.82205693 1.08479595-1.46721202 1.90685288-1.90685288.82205694-.43964086 1.637456-.67376749 3.88606252-.67376749z" fill="#4465b8" fill-rule="nonzero"/><path d="m34.1199996 28h33.7600008c3.3799825 0 6.1199996 2.7400171 6.1199996 6.1199996v33.7600008c0 3.3799825-2.7400171 6.1199996-6.1199996 6.1199996h-33.7600008c-3.3799825 0-6.1199996-2.7400171-6.1199996-6.1199996v-33.7600008c0-3.3799825 2.7400171-6.1199996 6.1199996-6.1199996zm25.5371655 45.9599987v-18.3621485h4.5263311l.5998366-6.3276981h-5.1261677l.0076902-3.1670738c0-1.6503612.1400259-2.5346623 2.256757-2.5346623h2.829678v-6.3284147h-4.526972c-5.4376214 0-7.3515231 3.0696143-7.3515231 8.2317404v3.799127h-3.3894613v6.3276981h3.3894613v18.3614319z" fill="#fff"/></g></svg>