<svg xmlns="http://www.w3.org/2000/svg" width="113" height="96" viewBox="0 0 113 96">
  <defs>
    <filter id="group-+-group-copy-a" width="111.1%" height="114.5%" x="-5.5%" y="-7.3%" filterUnits="objectBoundingBox">
      <feOffset dy="2" in="SourceAlpha" result="shadowOffsetOuter1"/>
      <feGaussianBlur in="shadowOffsetOuter1" result="shadowBlurOuter1" stdDeviation="4.5"/>
      <feColorMatrix in="shadowBlurOuter1" result="shadowMatrixOuter1" values="0 0 0 0 0   0 0 0 0 0   0 0 0 0 0  0 0 0 0.0811820652 0"/>
      <feMerge>
        <feMergeNode in="shadowMatrixOuter1"/>
        <feMergeNode in="SourceGraphic"/>
      </feMerge>
    </filter>
  </defs>
  <g fill="none" fill-rule="evenodd" filter="url(#group-+-group-copy-a)" transform="translate(1 9)">
    <g transform="rotate(-10 86.79 -192.601)">
      <path stroke="#9EEDC0" stroke-linecap="round" stroke-linejoin="round" stroke-width="4" d="M0.140435246,63.3876486 C0.140435246,63.3876486 36.0080687,57.5437056 47.6467013,40.832095 C56.905444,27.5374818 54.1502269,14.0937379 54.1502269,14.0937379"/>
      <path fill="#9EEDC0" d="M17.8675647 59.8391085C17.8675647 59.8391085 21.9476388 57.2164975 25.9643005 57.7697832 29.9815137 58.3227026 34.2648746 61.9674265 34.2648746 61.9674265 34.2648746 61.9674265 31.4769404 66.1907187 26.4688416 65.8909917 21.4609266 65.591448 17.8675647 59.8391085 17.8675647 59.8391085M28.561848 54.1609335C28.561848 54.1609335 32.8286666 51.8523396 36.7923929 52.7060851 40.7561192 53.5598307 44.7516435 57.5158236 44.7516435 57.5158236 44.7516435 57.5158236 41.6519783 61.5176183 36.6811916 60.8423166 31.7098536 60.1668317 28.561848 54.1609335 28.561848 54.1609335M38.8760885 49.2280058C38.8760885 49.2280058 42.7151959 46.2655455 46.7651261 46.4733025 50.8148725 46.6803266 55.396363 49.9448956 55.396363 49.9448956 55.396363 49.9448956 52.9824693 54.3913342 47.9672021 54.5212281 42.9515674 54.651122 38.8760885 49.2280058 38.8760885 49.2280058M46.7826827 42.0028621C46.7826827 42.0028621 49.1312873 37.8772193 52.7046295 36.6418532 56.2781419 35.4061207 61.3169167 36.8417323 61.3169167 36.8417323 61.3169167 36.8417323 60.6895789 41.8522658 56.3914301 43.7440633 52.0932813 45.636044 46.7826827 42.0028621 46.7826827 42.0028621M52.2577842 33.3012725C52.2577842 33.3012725 53.2354608 28.9971166 56.2058679 26.8018517 59.1761073 24.6060856 64.3001517 24.2544089 64.3001517 24.2544089 64.3001517 24.2544089 65.1891619 28.7785925 61.7353639 31.7695991 58.2817335 34.761274 52.2577842 33.3012725 52.2577842 33.3012725M55.1467309 23.89947C55.1467309 23.89947 55.2425941 19.7964803 57.5451802 17.2501346 59.846987 14.7036334 64.4524711 13.4425017 64.4524711 13.4425017 64.4524711 13.4425017 66.0983557 17.4034839 63.5027245 20.7641197 60.9072491 24.1247554 55.1467309 23.89947 55.1467309 23.89947"/>
      <path fill="#9EEDC0" d="M51.4081005,16.1005254 C51.4081005,16.1005254 49.112145,12.2262169 49.7750906,8.52617812 C50.4373526,4.82648008 53.9915205,0.992374554 53.9915205,0.992374554 C53.9915205,0.992374554 57.8259747,3.72907448 57.3635022,8.35599678 C56.9008588,12.9834301 51.4081005,16.1005254 51.4081005,16.1005254" transform="rotate(-26 53.529 8.546)"/>
      <path fill="#9EEDC0" d="M18.1772739 58.6731779C18.1772739 58.6731779 22.8596726 57.3938421 25.1265234 54.0424329 27.3930065 50.6908405 27.5277346 45.0786545 27.5277346 45.0786545 27.5277346 45.0786545 22.510997 44.330986 19.3935029 48.2492382 16.2761925 52.1678569 18.1772739 58.6731779 18.1772739 58.6731779M33.382777 51.8349726C33.382777 51.8349726 37.3368935 49.6631088 38.655844 46.1413056 39.9739398 42.6195025 38.8713957 37.5155288 38.8713957 37.5155288 38.8713957 37.5155288 34.1719935 37.9270022 32.2080974 42.1458395 30.2442013 46.3646769 33.382777 51.8349726 33.382777 51.8349726"/>
      <path fill="#9EEDC0" d="M46.5853225,38.7580115 C47.5351465,35.7314858 46.3730326,31.4817859 46.3730326,31.4817859 C46.3730326,31.4817859 42.4329791,32.0411196 40.9707462,35.6844793 C39.5088017,39.3279828 42.4024047,43.7940273 42.4024047,43.7940273 C42.4024047,43.7940273 45.6347774,41.7849685 46.5853225,38.7580115 Z" transform="rotate(-11 43.758 37.638)"/>
      <path fill="#9EEDC0" d="M50.9227142,35.1483166 C50.9227142,35.1483166 52.8249743,31.0556104 51.7945263,27.4309494 C50.7630504,23.8064591 46.8351848,20.3356503 46.8351848,20.3356503 C46.8351848,20.3356503 43.2838652,23.4465032 44.2080992,28.0157925 C45.1325044,32.5847403 50.9227142,35.1483166 50.9227142,35.1483166" transform="rotate(4 48.078 27.742)"/>
      <path fill="#9EEDC0" d="M53.048414,22.9663314 C53.048414,22.9663314 54.4058674,18.9731074 53.0846042,15.7072446 C51.7627005,12.4413819 47.7638416,9.60695582 47.7638416,9.60695582 C47.7638416,9.60695582 44.7752662,12.8517495 46.0925261,17.0063433 C47.4099461,21.1604582 53.048414,22.9663314 53.048414,22.9663314" transform="rotate(-9 49.71 16.287)"/>
    </g>
    <g transform="scale(-1 1) rotate(-10 31.29 441.767)">
      <path stroke="#9EEDC0" stroke-linecap="round" stroke-linejoin="round" stroke-width="4" d="M0.140435246,63.3876486 C0.140435246,63.3876486 36.0080687,57.5437056 47.6467013,40.832095 C56.905444,27.5374818 54.1502269,14.0937379 54.1502269,14.0937379"/>
      <path fill="#9EEDC0" d="M17.8675647 59.8391085C17.8675647 59.8391085 21.9476388 57.2164975 25.9643005 57.7697832 29.9815137 58.3227026 34.2648746 61.9674265 34.2648746 61.9674265 34.2648746 61.9674265 31.4769404 66.1907187 26.4688416 65.8909917 21.4609266 65.591448 17.8675647 59.8391085 17.8675647 59.8391085M28.561848 54.1609335C28.561848 54.1609335 32.8286666 51.8523396 36.7923929 52.7060851 40.7561192 53.5598307 44.7516435 57.5158236 44.7516435 57.5158236 44.7516435 57.5158236 41.6519783 61.5176183 36.6811916 60.8423166 31.7098536 60.1668317 28.561848 54.1609335 28.561848 54.1609335M38.8760885 49.2280058C38.8760885 49.2280058 42.7151959 46.2655455 46.7651261 46.4733025 50.8148725 46.6803266 55.396363 49.9448956 55.396363 49.9448956 55.396363 49.9448956 52.9824693 54.3913342 47.9672021 54.5212281 42.9515674 54.651122 38.8760885 49.2280058 38.8760885 49.2280058M46.7826827 42.0028621C46.7826827 42.0028621 49.1312873 37.8772193 52.7046295 36.6418532 56.2781419 35.4061207 61.3169167 36.8417323 61.3169167 36.8417323 61.3169167 36.8417323 60.6895789 41.8522658 56.3914301 43.7440633 52.0932813 45.636044 46.7826827 42.0028621 46.7826827 42.0028621M52.2577842 33.3012725C52.2577842 33.3012725 53.2354608 28.9971166 56.2058679 26.8018517 59.1761073 24.6060856 64.3001517 24.2544089 64.3001517 24.2544089 64.3001517 24.2544089 65.1891619 28.7785925 61.7353639 31.7695991 58.2817335 34.761274 52.2577842 33.3012725 52.2577842 33.3012725M55.1467309 23.89947C55.1467309 23.89947 55.2425941 19.7964803 57.5451802 17.2501346 59.846987 14.7036334 64.4524711 13.4425017 64.4524711 13.4425017 64.4524711 13.4425017 66.0983557 17.4034839 63.5027245 20.7641197 60.9072491 24.1247554 55.1467309 23.89947 55.1467309 23.89947"/>
      <path fill="#9EEDC0" d="M51.4081005,16.1005254 C51.4081005,16.1005254 49.112145,12.2262169 49.7750906,8.52617812 C50.4373526,4.82648008 53.9915205,0.992374554 53.9915205,0.992374554 C53.9915205,0.992374554 57.8259747,3.72907448 57.3635022,8.35599678 C56.9008588,12.9834301 51.4081005,16.1005254 51.4081005,16.1005254" transform="rotate(-26 53.529 8.546)"/>
      <path fill="#9EEDC0" d="M18.1772739 58.6731779C18.1772739 58.6731779 22.8596726 57.3938421 25.1265234 54.0424329 27.3930065 50.6908405 27.5277346 45.0786545 27.5277346 45.0786545 27.5277346 45.0786545 22.510997 44.330986 19.3935029 48.2492382 16.2761925 52.1678569 18.1772739 58.6731779 18.1772739 58.6731779M33.382777 51.8349726C33.382777 51.8349726 37.3368935 49.6631088 38.655844 46.1413056 39.9739398 42.6195025 38.8713957 37.5155288 38.8713957 37.5155288 38.8713957 37.5155288 34.1719935 37.9270022 32.2080974 42.1458395 30.2442013 46.3646769 33.382777 51.8349726 33.382777 51.8349726"/>
      <path fill="#9EEDC0" d="M46.5853225,38.7580115 C47.5351465,35.7314858 46.3730326,31.4817859 46.3730326,31.4817859 C46.3730326,31.4817859 42.4329791,32.0411196 40.9707462,35.6844793 C39.5088017,39.3279828 42.4024047,43.7940273 42.4024047,43.7940273 C42.4024047,43.7940273 45.6347774,41.7849685 46.5853225,38.7580115 Z" transform="rotate(-11 43.758 37.638)"/>
      <path fill="#9EEDC0" d="M50.9227142,35.1483166 C50.9227142,35.1483166 52.8249743,31.0556104 51.7945263,27.4309494 C50.7630504,23.8064591 46.8351848,20.3356503 46.8351848,20.3356503 C46.8351848,20.3356503 43.2838652,23.4465032 44.2080992,28.0157925 C45.1325044,32.5847403 50.9227142,35.1483166 50.9227142,35.1483166" transform="rotate(4 48.078 27.742)"/>
      <path fill="#9EEDC0" d="M53.048414,22.9663314 C53.048414,22.9663314 54.4058674,18.9731074 53.0846042,15.7072446 C51.7627005,12.4413819 47.7638416,9.60695582 47.7638416,9.60695582 C47.7638416,9.60695582 44.7752662,12.8517495 46.0925261,17.0063433 C47.4099461,21.1604582 53.048414,22.9663314 53.048414,22.9663314" transform="rotate(-9 49.71 16.287)"/>
    </g>
    <path stroke="#39D15F" stroke-width="5" d="M33.8880446,5.35974063 C35.4496647,4.21952762 45.8911915,0.869250853 56.3141974,0.856202151 C66.9785287,0.84285133 77.6234715,4.1931281 78.7180972,5.35974063 C78.7180972,32.0200601 71.5313932,43.0464772 56.3030709,50.482988 C41.5212016,43.3429621 33.8880446,31.7445716 33.8880446,5.35974063 Z"/>
  </g>
</svg>
