<svg height="93" viewBox="0 0 131 93" width="131" xmlns="http://www.w3.org/2000/svg" xmlns:xlink="http://www.w3.org/1999/xlink"><filter id="a" height="114.5%" width="111.1%" x="-5.5%" y="-7.3%"><feOffset dy="2" in="SourceAlpha" result="shadowOffsetOuter1"/><feGaussianBlur in="shadowOffsetOuter1" result="shadowBlurOuter1" stdDeviation="4.5"/><feColorMatrix in="shadowBlurOuter1" result="shadowMatrixOuter1" values="0 0 0 0 0   0 0 0 0 0   0 0 0 0 0  0 0 0 0.0811820652 0"/><feMerge><feMergeNode in="shadowMatrixOuter1"/><feMergeNode in="SourceGraphic"/></feMerge></filter><g fill="none" filter="url(#a)" transform="translate(9 11)"><path d="m8.93514937 4.58333333h41.50800793c4.5950095 0 8.3200006 3.72499115 8.3200006 8.32000057v28.927866c0 4.5950094-3.7249911 8.3200005-8.3200006 8.3200005h-6.2170017v9.1265774l-14.5370023-9.1265774h-20.75400393c-4.59500944 0-8.32000058-3.7249911-8.32000058-8.3200005v-28.927866c0-4.59500942 3.72499114-8.32000057 8.32000058-8.32000057z" fill="#cae5f8" transform="matrix(-1 0 0 1 59.378 0)"/><path d="m93.5299708 57.3819444v11.0918787l-20.0692674-11.0918787h-26.2708198c-5.6995789 0-10.3200006-4.6204216-10.3200006-10.3200005v-38.74194332c0-5.69957894 4.6204217-10.32000058 10.3200006-10.32000058h53.5734494c5.699579 0 10.32 4.62042164 10.32 10.32000058v38.74194332c0 5.6995789-4.620421 10.3200005-10.32 10.3200005z" fill="#266ff0" stroke="#fff" stroke-width="4"/></g></svg>